<?xml version="1.0" encoding="UTF-8"?>
<svg width="159.3" height="209" version="1.1" viewBox="0 0 159.3 209" xml:space="preserve" xmlns="http://www.w3.org/2000/svg"><path d="m1.0469 105.42c-0.62673 5.2966-0.97398 10.764-0.94727 16.48-0.3 3.7 0.4 9.6004 1.5 15.4 2.9 16.8 8.7004 32.398 19.9 45.398 19 21.9 43.5 29.501 71.6 25.201 22.7-3.5 40.3-15.6 52-35.5 12.177-20.926 16.194-43.403 13.273-66.98-6.5157 3.8032-6.546 6.4594-16.553 13.215-4.4106 3.3212-6.7889 5.3472-11.221 9.4648-1.6 1.7-2.7996 1.8996-4.5996 0.09961-6.6-6.7-13.4-13.198-20-19.898-1.9-1.8-3.2004-2.4012-5.4004-0.20117-6.3 6.6-13 13-19.4 19.5-1.9 2-3.1988 2.0996-5.2988 0.09961-6.7-6.2-13.1-12.6-19.4-19.1-2.3-2.3-3.7-2.5-6 0-6.4 6.5-13.1 12.801-19.6 19.301-2 2.1-3.2996 1.6988-5.0996-0.20117-4.5-4.7-9.1012-9.2988-13.701-13.799-1.2-1.2-5.094-4.5751-6.2363-5.5469l-4.8164-2.9336z" fill="#8ad1ff"/></svg>
